<?xml version="1.0" standalone="no"?><!DOCTYPE svg PUBLIC "-//W3C//DTD SVG 1.1//EN" "http://www.w3.org/Graphics/SVG/1.1/DTD/svg11.dtd"><svg t="1594965442223" class="icon" viewBox="0 0 1025 1024" version="1.1" xmlns="http://www.w3.org/2000/svg" p-id="1980" width="1025" height="1024" xmlns:xlink="http://www.w3.org/1999/xlink"><defs><style type="text/css"></style></defs><path d="M768.002501 0 255.997499 0c-141.373881 0-255.997499 114.623618-255.997499 256.003751l0 511.997499c0 141.376382 114.623618 255.99875 255.997499 255.99875l512.006252 0c141.377632 0 256.00125-114.626119 256.00125-255.99875l0-511.997499C1024.005002 114.623618 909.381383 0 768.002501 0zM500.822484 206.899707l20.554425 0 0 238.777948-20.554425 0L500.822484 206.899707zM785.715969 631.070116c-14.778729 36.461034-36.497296 69.165803-64.540495 97.210252-28.045699 28.044449-60.749217 49.758014-97.211502 64.540495-35.206862 14.27731-72.414397 21.515999-110.579756 21.515999s-75.367893-7.238689-110.579756-21.515999c-36.462285-14.78248-69.167053-36.497296-97.211502-64.540495s-49.761765-60.749217-64.541745-97.210252c-14.27606-35.211863-21.514749-72.414397-21.514749-110.582257 0-38.164108 7.238689-75.370393 21.514749-110.582257 14.77998-36.458533 36.497296-69.167053 64.541745-97.212752 21.824853-21.819851 46.847033-39.999726 74.375058-54.030704l8.235275 16.157944c-25.831203 13.168187-49.311614 30.222682-69.789763 50.699581-52.066292 52.067542-80.744704 121.310871-80.744704 194.966937 0 73.659817 28.679663 142.899395 80.744704 194.970688 107.508721 107.502469 282.430155 107.502469 389.937625 0 52.067542-52.071294 80.744704-121.310871 80.744704-194.970688 0-73.657316-28.678412-142.900645-80.744704-194.966937-21.659797-21.657297-46.590697-39.443289-74.101216-52.867812l7.952679-16.299241c29.318628 14.30732 55.89008 33.261206 78.970356 56.341482 28.044449 28.044449 49.761765 60.752969 64.540495 97.212752 14.27731 35.210613 21.515999 72.418149 21.515999 110.582257C807.231968 558.655719 799.993279 595.858253 785.715969 631.070116z" p-id="1981" fill="#007AFF"></path></svg>